<svg width="290" height="81" viewBox="0 0 290 81" fill="none" xmlns="http://www.w3.org/2000/svg">
<path fill-rule="evenodd" clip-rule="evenodd" d="M46.4536 0L67.4616 16.1601L64.4131 20.1232L46.4212 6.28323L17.9374 27.7299V75.1416H137.5L133 80.1416H12.9374V31.4946L8.49609 35H0L46.4536 0Z" fill="black"/>
<path d="M50.5 33.5H90.5" stroke="black" stroke-width="5"/>
<path d="M50.5 47.5H84" stroke="black" stroke-width="5"/>
<path d="M50.5 62.5H76.5" stroke="black" stroke-width="5"/>
<path d="M109.5 67.3V22.5H126.652C129.34 22.5 131.729 23.0333 133.82 24.1C135.953 25.124 137.639 26.596 138.876 28.516C140.113 30.436 140.732 32.7613 140.732 35.492V36.324C140.732 39.012 140.092 41.3373 138.812 43.3C137.575 45.22 135.889 46.692 133.756 47.716C131.623 48.74 129.255 49.252 126.652 49.252H114.876V67.3H109.5ZM114.876 44.388H126.076C128.935 44.388 131.196 43.684 132.86 42.276C134.524 40.8253 135.356 38.7987 135.356 36.196V35.556C135.356 32.9533 134.524 30.948 132.86 29.54C131.239 28.0893 128.977 27.364 126.076 27.364H114.876V44.388Z" fill="black"/>
<path d="M148.13 67.3V36.004H153.058V39.844H153.954C154.508 38.4787 155.362 37.476 156.514 36.836C157.666 36.196 159.18 35.876 161.058 35.876H164.77V40.484H160.738C158.476 40.484 156.642 41.124 155.234 42.404C153.868 43.6413 153.186 45.5827 153.186 48.228V67.3H148.13Z" fill="black"/>
<path d="M148.13 80.1L151.862 75.62H193.951C195.188 75.62 195.806 74.98 195.806 73.7V62.308H194.91C194.484 63.204 193.822 64.1 192.926 64.996C192.073 65.8493 190.942 66.5533 189.535 67.108C188.127 67.62 186.356 67.876 184.222 67.876C181.961 67.876 179.871 67.3853 177.951 66.404C176.073 65.4227 174.58 63.972 173.471 62.052C172.404 60.132 171.87 57.7853 171.87 55.012V36.004H176.926V54.628C176.926 57.7 177.694 59.94 179.23 61.348C180.809 62.756 182.921 63.46 185.566 63.46C188.553 63.46 191.006 62.4787 192.926 60.516C194.846 58.5533 195.806 55.6307 195.806 51.748V36.004H200.862V74.596C200.862 76.3027 200.372 77.6467 199.39 78.628C198.452 79.6093 197.065 80.1 195.23 80.1H148.13Z" fill="black"/>
<path d="M210.034 67.3V60.772L229.938 41.124V40.42H210.674V36.004H235.25V42.532L215.282 62.18V62.948H235.762V67.3H210.034Z" fill="black"/>
<path d="M244.817 67.3V36.004H249.745V39.908H250.641C251.238 38.7987 252.22 37.7747 253.585 36.836C254.95 35.8973 256.87 35.428 259.345 35.428C261.777 35.428 263.74 35.9613 265.233 37.028C266.769 38.0947 267.878 39.396 268.561 40.932H269.457C270.182 39.396 271.27 38.0947 272.721 37.028C274.214 35.9613 276.284 35.428 278.929 35.428C281.02 35.428 282.854 35.8547 284.433 36.708C286.012 37.5613 287.249 38.7987 288.145 40.42C289.084 41.9987 289.553 43.8973 289.553 46.116V67.3H284.497V46.564C284.497 44.4733 283.878 42.8307 282.641 41.636C281.446 40.3987 279.761 39.78 277.585 39.78C275.281 39.78 273.382 40.5267 271.889 42.02C270.438 43.5133 269.713 45.668 269.713 48.484V67.3H264.657V46.564C264.657 44.4733 264.038 42.8307 262.801 41.636C261.606 40.3987 259.921 39.78 257.745 39.78C255.441 39.78 253.542 40.5267 252.049 42.02C250.598 43.5133 249.873 45.668 249.873 48.484V67.3H244.817Z" fill="black"/>
</svg>
